<svg xmlns="http://www.w3.org/2000/svg" viewBox="0 0 368 66.7"><path d="M124.6 23.9h-4.9v11.2c0 2.5-.9 3.4-3.3 3.4h-4.8c-2.4 0-3.3-.9-3.3-3.4V23.9h-4.9c-.6 0-1.1.5-1.1 1.1v11.4c0 4.8 2.5 7.1 8 7.1h7.4c5.5 0 7.9-2.3 7.9-7.1V25c.1-.6-.4-1.1-1-1.1M363 17.3c0-.8-.5-1.2-1.5-1.2H360v4h.7v-1.7h.6l1 1.7h.7l-1.1-1.8c.6.1 1.1-.2 1.1-1m-2.3.6v-1.2h.8c.4 0 .9.1.9.5 0 .6-.4.6-.9.6h-.8zM149.9 23.9h-20.5c-.6 0-1.1.5-1.1 1.1v3.6h8.4v13.6c0 .6.5 1.1 1.1 1.1h4.8V28.6h8.4V25c0-.6-.5-1.1-1.1-1.1M177 36.4V25c0-.6-.5-1.1-1.1-1.1H171v11.2c0 2.5-.9 3.4-3.3 3.4h-4.8c-2.4 0-3.3-.9-3.3-3.4V23.9h-4.9c-.6 0-1.1.5-1.1 1.1v11.4c0 4.8 2.5 7.1 8 7.1h7.4c5.5 0 8-2.3 8-7.1M209.2 35.7h24.7c.2 0 .4-.2.4-.4v-3.9c0-.2-.2-.4-.4-.4h-24.7c-.2 0-.4.2-.4.4v3.9c0 .2.2.4.4.4M209.2 28.4H234c.2 0 .4-.2.4-.4v-3.9c0-.2-.2-.4-.4-.4h-24.7c-.2 0-.4.2-.4.4V28c-.1.2.1.4.3.4"/><path d="M361.4 14.5c-1.9 0-3.6 1.4-3.6 3.6 0 2.1 1.5 3.6 3.6 3.6 1.9 0 3.5-1.4 3.5-3.6 0-2.1-1.6-3.6-3.5-3.6m0 6.6c-1.7 0-2.8-1.3-2.8-3 0-1.8 1.2-3 2.8-3 1.5 0 2.7 1.2 2.7 3s-1.2 3-2.7 3M78.5 25v17.2c0 .6.5 1.1 1.1 1.1h4.9v-6.6h13.6v-4.5H84.4v-3.6h14.3v-4.7H79.6c-.6 0-1.1.5-1.1 1.1M269 43.3c.6 0 1.1-.5 1.1-1.1V25c0-.6-.5-1.1-1.1-1.1h-8l-6.7 12.5-6.7-12.5h-8c-.6 0-1.1.5-1.1 1.1v17.2c0 .6.5 1.1 1.1 1.1h4.7V29.4l7.9 13.9h4.4l7.8-13.9v13.9h4.6zM321.3 23.9h-16.9c-.6 0-1.1.5-1.1 1.1v17.2c0 .6.5 1.1 1.1 1.1h4.9v-5h9.4c1.9 0 2.4.7 2.4 2.7v1.2c0 .6.5 1.1 1.1 1.1h4.9v-3.4c0-3.1-1.5-3.9-3.3-4.3 2.7-.6 3.3-2.2 3.3-4.8v-1.2c0-3.4-1.2-5.7-5.8-5.7m0 7.5c0 1.4-.6 2-2.2 2h-9.8v-4.7h9.3c1.9 0 2.7.3 2.7 2v.7zM234 38.5h-24.8c-.2 0-.4.2-.4.4v4c0 .2.2.4.4.4H234c.2 0 .4-.2.4-.4v-4c0-.2-.2-.4-.4-.4M355.2 23.9h-8.1l-7.5 7.1h-2.8v-7.1H332c-.6 0-1.1.5-1.1 1.1v17.3c0 .6.5 1.1 1.1 1.1h4.9V36h2.6l8.6 7.4h8.4l-11.7-9.9 10.4-9.6zM199 23.9h-16.9c-.6 0-1.1.5-1.1 1.1v17.2c0 .6.5 1.1 1.1 1.1h4.9v-5h9.4c1.8 0 2.4.7 2.4 2.7v1.2c0 .6.5 1.1 1.1 1.1h4.9v-3.4c0-3.1-1.5-3.9-3.3-4.3 2.7-.6 3.3-2.2 3.3-4.8v-1.2c0-3.4-1.2-5.7-5.8-5.7m0 7.5c0 1.4-.6 2-2.2 2H187v-4.7h9.3c1.9 0 2.7.3 2.7 2v.7zM282.8 23.9l-10.5 19.4h6.6l1.7-3.4h12.1l1.9 3.4h6.6l-10.7-19.4h-7.7zm.1 11.8l3.8-7.3 3.9 7.3h-7.7z"/><path fill="#FD7D16" d="M50.6 40.2H18.7c-.2 0-.4.2-.4.4V46c0 .2.2.4.4.4h31.9c.2 0 .4-.2.4-.4v-5.3c0-.3-.2-.5-.4-.5M50.6 30.4H18.7c-.2 0-.4.2-.4.4v5.3c0 .2.2.4.4.4h31.9c.2 0 .4-.2.4-.4v-5.3c0-.2-.2-.4-.4-.4M50.6 21.1H18.7c-.2 0-.4.2-.4.4v5.3c0 .2.2.4.4.4h31.9c.2 0 .4-.2.4-.4v-5.3c0-.2-.2-.4-.4-.4"/><path fill="#FD7D16" d="M34.6 4C18.2 4 4.9 17.4 4.9 33.8c0 1.9.2 3.7.5 5.5.1.4.2.9.3 1.4 3.1 13.1 14.9 22.8 28.9 22.8 13.8 0 25.4-9.4 28.8-22.1.3-1.2.6-2.5.5-2.3.3-1.7.5-3.5.5-5.4C64.4 17.4 51 4 34.6 4m24.8 34.7c-.1.6-.3 1.3-.5 1.9C55.9 51.2 46.1 59 34.6 59 23 59 13.2 51.1 10.2 40.4l-.3-1.2c-.4-1.8-.6-3.6-.6-5.5 0-14 11.4-25.3 25.3-25.3s25.3 11.3 25.3 25.3c0 1.8-.2 3.4-.5 5"/></svg>