<svg xmlns="http://www.w3.org/2000/svg" viewBox="0 0 415.74268 137.836" height="137.836" width="415.743"><defs><clipPath id="c"><path d="M0 103.377h311.807V0H0z"/></clipPath><clipPath id="d"><path d="M228.712 41.166h46.594v6.593h-46.594z"/></clipPath><clipPath id="a"><path d="M-32768 32767h65535v-65535h-65535z"/></clipPath><linearGradient id="b" gradientTransform="matrix(46.5937 0 0 -46.5937 228.713 44.463)" gradientUnits="userSpaceOnUse" x2="1"><stop offset="0" stop-color="#fff"/><stop offset=".467" stop-color="#fff"/><stop offset=".661" stop-color="#fff"/><stop offset=".98" stop-opacity="0" stop-color="#fff"/><stop offset="1" stop-opacity="0" stop-color="#fff"/></linearGradient><mask id="e" height="1" width="1" y="0" x="0" maskUnits="userSpaceOnUse"><g clip-path="url(#a)"><path d="M-32768 32767h65535v-65535h-65535z" fill="url(#b)"/></g></mask><linearGradient id="f" gradientTransform="matrix(46.5937 0 0 -46.5937 228.713 44.463)" gradientUnits="userSpaceOnUse" x2="1"><stop offset="0" stop-color="#fff"/><stop offset=".467" stop-color="#fff"/><stop offset=".661" stop-color="#fff"/><stop offset=".98" stop-color="#fff"/><stop offset="1" stop-color="#fff"/></linearGradient></defs><g clip-path="url(#c)" transform="matrix(1.33333 0 0 -1.33333 0 137.836)"><path d="M293.974 22.059a4.265 4.265 0 0 0-4.252-4.252H22.059a4.265 4.265 0 0 0-4.252 4.252v59.497a4.265 4.265 0 0 0 4.252 4.252h267.663a4.265 4.265 0 0 0 4.252-4.252z" fill="#c92000"/><path d="M61.987 62.15h-10.1v6.9h28.001v-6.9h-10.1V33.648h-7.8zM113.689 47.298c0-8.35-5.101-14.55-14.901-14.55-9.85 0-14.951 6.2-14.951 14.55V69.05h7.8V47.6c0-4.35 3-7.652 7.15-7.652 4.1 0 7.1 3.301 7.1 7.651V69.05h7.802zM129.687 52.148L117.986 69.05h9.801l7.55-12.4 7.251 12.4h9.45L140.587 52.3l12.801-18.652h-9.8l-8.651 14.251-8.4-14.25h-9.251zM157.286 69.05h24.05v-7.201h-16.25v-6.6h15.35v-7.2h-15.35v-7.201h17.15v-7.2h-24.95zM196.286 54.399h4.6c2.85 0 6.55.1 6.55 3.95 0 3.55-3.2 4.1-6.05 4.1h-5.1zm-7.801 14.651h13.7c7.25 0 13.352-2.501 13.352-10.751 0-4.95-2.65-8.8-7.65-9.701l9-14.95h-9.35l-7.401 14.15h-3.85v-14.15h-7.801zM235.536 58.75l-4.3-11h8.65zm-3 10.3h6.45l15.402-35.403h-8.801l-3.05 7.501h-13.751l-2.95-7.5h-8.601z" fill="#fff"/></g><g clip-path="url(#d)" transform="matrix(1.33333 0 0 -1.33333 0 137.836)"><path d="M228.712 41.166h46.594v6.593h-46.594z" fill="url(#f)" mask="url(#e)"/></g></svg>